<svg xmlns="http://www.w3.org/2000/svg" viewBox="0 0 278.83 206.55"><defs><style>.cls-1{isolation:isolate;}.cls-2{fill:#ed71a8;}.cls-3{fill:#2f52a0;}.cls-4{fill:#ee76ab;}.cls-5{fill:#efbcbc;mix-blend-mode:multiply;}.cls-6,.cls-7{fill:#fff;}.cls-6{mix-blend-mode:soft-light;}</style></defs><g class="cls-1"><g id="Calque_1" data-name="Calque 1"><path class="cls-2" d="M265.3,69.79C247.07,51.53,225.08,46.73,216,46.73a69.61,69.61,0,0,0-41.54,14.4c-.87.66-1.7,1.32-2.54,2-1.15.94-2.26,1.95-3.37,3-.66.59-1.29,1.22-1.88,1.84s-1.25,1.26-1.85,1.92a75.86,75.86,0,0,0-12.45,18.54,3.67,3.67,0,0,1-.45.7l0,0a2.92,2.92,0,0,1-4.77-.69c-14.78-29.82-43.38-41.75-63.49-41.75-29.54,0-73.24,27.41-73.24,86.32,0,57.4,32.67,73.55,45,79.64.73.34,1.35.66,1.91.94A57.86,57.86,0,0,0,63,216c5.15,1.92,12.81,4.49,21.47,7.27,25.54,8.32,60,18.65,65.55,20.32l2.12.59,2.16-.66,66.17-22.19,14.23-4.77a39.11,39.11,0,0,0,5.36-2,80.46,80.46,0,0,0,22.16-14.51c12.29-11.28,27-32.08,27-67C289.28,107.44,281,85.56,265.3,69.79ZM118.93,133.53c0,34.45-28.39,45-29.61,45.41a23.27,23.27,0,0,1-16.77.52,43.94,43.94,0,0,1-5-2c-.42-.21-.91-.45-1.43-.73-7.23-3.55-24.18-11.93-24.18-43.59,0-35.18,26.44-47,38.52-47,14.78,0,38.3,12.77,38.51,47Zm105.56,44.64a29.37,29.37,0,0,1-7.72,1.36,32.36,32.36,0,0,1-11.83-2c-20.84-8.42-32.46-27.17-26.93-57.58,2.12-11.9,12.66-34.37,37.05-34.37,5.15,0,16.64,3.34,25.61,12.35,8.6,8.63,12.94,20.28,12.91,34.65C253.44,169.23,225.85,177.79,224.49,178.17Z" transform="translate(-10.38 -46.73)"/><path class="cls-3" d="M253.58,132.56c-.14,36.67-27.73,45.23-29.09,45.61a29.37,29.37,0,0,1-7.72,1.36,32.36,32.36,0,0,1-11.83-2c-20.84-8.42-32.46-27.17-26.93-57.58,2.12-11.9,12.66-34.37,37.05-34.37,5.15,0,16.64,3.34,25.61,12.35C249.27,106.54,253.61,118.19,253.58,132.56Z" transform="translate(-10.38 -46.73)"/><path class="cls-3" d="M118.93,133.22v.31c0,34.45-28.39,45-29.61,45.41a23.27,23.27,0,0,1-16.77.52,43.94,43.94,0,0,1-5-2c-.42-.21-.91-.45-1.43-.73-7.23-3.55-24.18-11.93-24.18-43.59,0-35.18,26.44-47,38.52-47C95.2,86.18,118.72,99,118.93,133.22Z" transform="translate(-10.38 -46.73)"/><path class="cls-3" d="M149.8,214.42c-19.74,0-30.77-9.73-31.23-10.15a5.37,5.37,0,0,1,7.16-8c.39.34,8.7,7.41,24.07,7.41s24-7.31,24-7.39a5.37,5.37,0,0,1,7.18,8C180.57,204.69,169.54,214.42,149.8,214.42Z" transform="translate(-10.38 -46.73)"/><path class="cls-4" d="M184.15,238c-2.14,9.75-11.33,15.27-20.53,15.29-7.94,0-15.87-4.05-19.26-13-4.18-11-1.06-25.35-3.63-26-.85-.16-4.28-1.4-4.28-1.4a27.2,27.2,0,0,1,15-8.85c7.34-1.34,11,5.32,11,5.32s0-.1.09-.26h0a9.24,9.24,0,0,1,2.35-3.48,9.46,9.46,0,0,1,7.67-2.33C182.22,204.18,187.29,223.67,184.15,238Z" transform="translate(-10.38 -46.73)"/><path class="cls-5" d="M163.62,253.27c-7.94,0-15.87-4.05-19.26-13-4.18-11-1.06-25.35-3.63-26-.85-.16-4.28-1.4-4.28-1.4a25.4,25.4,0,0,1,4.74-4.33l.4,0a10.76,10.76,0,0,1,7.36,3.87c1.7,2.12,2.09,5.12,2.38,7.74s.49,5.19.6,7.84c.21,4.81.12,10.13,1.86,14.71a20.12,20.12,0,0,0,4.78,7.32A16.87,16.87,0,0,0,163.62,253.27Z" transform="translate(-10.38 -46.73)"/><path class="cls-6" d="M181.13,224.91a.54.54,0,0,0-1,0c-.79,1.88-.77,4.23-.94,6.24a40.48,40.48,0,0,1-1.35,7.48,16.38,16.38,0,0,1-3.49,6.52c-1.81,2-4.33,2.71-6.82,3.5-.37.12-.44.75,0,.83,5.59,1,9.88-3.32,11.9-8.09a30.61,30.61,0,0,0,2-8.27C181.73,230.56,182.13,227.35,181.13,224.91Z" transform="translate(-10.38 -46.73)"/><path class="cls-3" d="M162.51,209.36a15.16,15.16,0,0,1,2.45,4.37,26.34,26.34,0,0,1,1.31,4.85,33.69,33.69,0,0,1,.46,5c0,.84,0,1.68,0,2.51l-.26,2.51c.12-1.68.22-3.35.2-5a33.43,33.43,0,0,0-.46-5,26.14,26.14,0,0,0-1.31-4.83,18.7,18.7,0,0,0-1-2.28A12.61,12.61,0,0,0,162.51,209.36Z" transform="translate(-10.38 -46.73)"/><circle class="cls-7" cx="70.04" cy="76.73" r="19.5"/><circle class="cls-7" cx="204.73" cy="76.73" r="19.5"/><circle class="cls-7" cx="56.88" cy="112.03" r="6.34"/><circle class="cls-7" cx="217.89" cy="112.03" r="6.34"/></g></g></svg>